# xmcd
#
# Track frame offsets:
#	183
#	10073
#	24085
#	36215
#	66420
#	80845
#	90728
#	101375
#	117418
#	134573
#	155048
#	172555
#	184920
#	197895
#	210585
#	230428
#	246765
#	260520
#	278440
#
# Disc length: 4098 seconds
#
# Revision: 2
# Processed by: cddbd v1.5.1PL0 Copyright (c) Steve Scherf et al.
# Submitted via: audiograbber 1.83.01
#
DISCID=00100013
DTITLE=Various Artist - Willie Dixon's Blues Dixonary - Vol 5
DYEAR=1993
DGENRE=Blues
TTITLE0=Koko Taylor - I Don't Care Who Knows
TTITLE1=Koko Taylor - Separate Or Integrate
TTITLE2=Koko Taylor - Yes, It's Good For You
TTITLE3=Little Milton - I Can't Quit You Baby
TTITLE4=Koko Taylor - Twenty-Nine Ways
TTITLE5=Howlin' Wolf - Built For Comfort
TTITLE6=Howlin' Wolf - Do The Do
TTITLE7=Howlin' Wolf - I Ain't Superstitious
TTITLE8=Howlin' Wolf - The Red Rooster
TTITLE9=Howlin' Wolf - Wang Dang Doodle
TTITLE10=Koko Taylor - Um Huh My Baby
TTITLE11=Koko Taylor - I Need More And More
TTITLE12=Koko Taylor - Bills, Bills and More Bills
TTITLE13=Koko Taylor - Let Me Love You Baby
TTITLE14=Muddy Waters - Young Fashioned Ways
TTITLE15=Muddy Waters - I'm Ready
TTITLE16=Muddy Waters - Walking Blues
TTITLE17=Muddy Waters - I Don't Know Why
TTITLE18=Koko Taylor and Muddy Waters - I Got What It Takes
EXTD=CD Box Copyright 1993\nMade In Belgium
EXTT0=
EXTT1=
EXTT2=
EXTT3=
EXTT4=
EXTT5=
EXTT6=
EXTT7=
EXTT8=
EXTT9=
EXTT10=
EXTT11=
EXTT12=
EXTT13=
EXTT14=
EXTT15=
EXTT16=
EXTT17=
EXTT18=
PLAYORDER=
